<svg xmlns="http://www.w3.org/2000/svg" xmlns:xlink="http://www.w3.org/1999/xlink" version="1.1" id="Layer_1" x="0px" y="0px" viewBox="0 0 512 512" style="enable-background:new 0 0 512 512;" xml:space="preserve">
<g transform="translate(1 1)">
	<g>
		<g>
			<path d="M220.867,250.733h68.267c5.12,0,8.533-3.413,8.533-8.533s-3.413-8.533-8.533-8.533h-68.267     c-5.12,0-8.533,3.413-8.533,8.533S215.747,250.733,220.867,250.733z"/>
            <path d="M314.733,267.8H195.267c-5.12,0-8.533,3.413-8.533,8.533s3.413,8.533,8.533,8.533h119.467     c5.12,0,8.533-3.413,8.533-8.533S319.853,267.8,314.733,267.8z"/>
            <path d="M502.467,45.933H459.8V31.427c0-11.093-8.533-19.627-19.627-19.627h-11.947c-11.093,0-19.627,8.533-19.627,19.627v14.507     h-42.667c-5.12,0-8.533,3.413-8.533,8.533S360.813,63,365.933,63H408.6v14.507c0,10.221,7.251,18.251,17.067,19.453v27.149     c-10.103,3.391-17.067,12.734-17.067,24.224V178.2l-51.2,38.4v-7.68c0-10.24-7.68-17.92-17.92-17.92H280.6v-42.667     c0-5.12-3.413-8.533-8.533-8.533c-5.12,0-8.533,3.413-8.533,8.533V191h-17.067v-25.6c0-5.12-3.413-8.533-8.533-8.533     s-8.533,3.413-8.533,8.533V191h-58.88c-10.24,0-17.92,7.68-17.92,17.92v7.68l-51.2-38.4v-29.867     c0-11.491-6.963-20.833-17.067-24.224V96.96c9.816-1.203,17.067-9.232,17.067-19.453V63h42.667c5.12,0,8.533-3.413,8.533-8.533     s-3.413-8.533-8.533-8.533H101.4V31.427c0-11.093-8.533-19.627-19.627-19.627H69.827C58.733,11.8,50.2,20.333,50.2,31.427v14.507     H7.533C2.413,45.933-1,49.347-1,54.467S2.413,63,7.533,63H50.2v14.507c0,10.221,7.251,18.251,17.067,19.453v27.149     C57.163,127.5,50.2,136.843,50.2,148.333v136.533c0,14.507,11.093,25.6,25.6,25.6s25.6-11.093,25.6-25.6v-32.085l43.186,37.572     c-31.679,19.833-65.443,89.805-68.546,148.114H75.8V447v8.533v23.04c0,11.093,8.533,19.627,19.627,19.627h11.947     c11.093,0,19.627-8.533,19.627-19.627v-23.04V447c0-67.413,54.613-119.467,76.8-119.467h17.067v34.133h25.6v34.736     c-29.155,4.075-51.2,28.753-51.2,59.131c0,16.213,7.68,31.573,20.48,40.96c1.707,0.853,3.413,1.707,5.12,1.707     c2.56,0,5.12-0.853,6.827-3.413c2.56-3.413,1.707-9.387-1.707-11.947c-8.533-6.827-13.653-16.213-13.653-27.307     c0-23.893,18.773-42.667,42.667-42.667c23.893,0,42.667,18.773,42.667,42.667c0,11.093-5.12,20.48-13.653,27.307     c-3.413,2.56-4.267,8.533-1.707,11.947c1.707,2.56,4.267,3.413,6.827,3.413c1.707,0,3.413-0.853,5.12-1.707     c12.8-9.387,20.48-24.747,20.48-40.96c0-30.378-22.045-55.056-51.2-59.131v-34.736h25.6v-34.133H306.2     c22.187,0,76.8,52.053,76.8,119.467v8.533v23.04c0,11.093,8.533,19.627,19.627,19.627h11.947     c11.093,0,19.627-8.533,19.627-19.627v-23.04V447v-8.533h-0.24c-3.103-58.309-36.867-128.281-68.546-148.114l43.186-37.572     v32.085c0,14.507,11.093,25.6,25.6,25.6c14.507,0,25.6-11.093,25.6-25.6V148.333c0-11.491-6.963-20.833-17.067-24.224V96.96     c9.816-1.203,17.067-9.232,17.067-19.453V63h42.667c5.12,0,8.533-3.413,8.533-8.533S507.587,45.933,502.467,45.933z      M425.667,31.427c0-1.707,0.853-2.56,2.56-2.56h11.947c1.707,0,2.56,0.853,2.56,2.56v14.507h-17.067V31.427z M67.267,31.427     c0-1.707,0.853-2.56,2.56-2.56h11.947c1.707,0,2.56,0.853,2.56,2.56v14.507H67.267V31.427z M84.333,63v14.507     c0,1.707-0.853,2.56-2.56,2.56H69.827c-1.707,0-2.56-0.853-2.56-2.56V63H84.333z M84.333,284.867c0,5.12-3.413,8.533-8.533,8.533     s-8.533-3.413-8.533-8.533V148.333c0-5.12,3.413-8.533,8.533-8.533s8.533,3.413,8.533,8.533V165.4v72.533V284.867z      M101.4,199.533l51.2,37.547v36.693L101.4,229.4V199.533z M109.933,478.573c0,1.707-0.853,2.56-2.56,2.56H95.427     c-1.707,0-2.56-0.853-2.56-2.56v-23.04h17.067V478.573z M109.933,438.467H92.867c3.413-58.027,38.4-118.613,59.733-133.12v4.267     v0.853c0,9.387,5.12,15.36,13.653,17.067C138.947,349.72,112.493,391.533,109.933,438.467z M272.067,344.6h-34.133v-17.067     h34.133V344.6z M289.133,310.467h-68.267H203.8h-0.853H170.52c-0.853,0-0.853,0-0.853-0.853l0.853-101.547h168.96     c0.853,0,0.853,0,0.853,0.853v20.48v55.467v24.747c0,0.853,0,0.853-0.853,0.853H306.2H289.133z M417.133,478.573     c0,1.707-0.853,2.56-2.56,2.56h-11.947c-1.707,0-2.56-0.853-2.56-2.56v-23.04h17.067V478.573z M417.133,438.467h-17.067     c-3.413-46.933-29.867-88.747-56.32-110.933c7.68-1.707,13.653-8.533,13.653-17.067v-0.853v-4.267     C379.587,319.853,413.72,380.44,417.133,438.467z M357.4,274.627v-36.693l51.2-38.4v30.72L357.4,274.627z M442.733,284.867     c0,5.12-3.413,8.533-8.533,8.533s-8.533-3.413-8.533-8.533v-46.933V165.4v-17.067c0-5.12,3.413-8.533,8.533-8.533     s8.533,3.413,8.533,8.533V284.867z M442.733,77.507c0,1.707-0.853,2.56-2.56,2.56h-11.947c-1.707,0-2.56-0.853-2.56-2.56V63     h17.067V77.507z"/>
		</g>
	</g>
</g>
    <g>
</g>
    <g>
</g>
    <g>
</g>
    <g>
</g>
    <g>
</g>
    <g>
</g>
    <g>
</g>
    <g>
</g>
    <g>
</g>
    <g>
</g>
    <g>
</g>
    <g>
</g>
    <g>
</g>
    <g>
</g>
    <g>
</g>
</svg>
